<svg version="1.1" id="Layer_1" xmlns="http://www.w3.org/2000/svg" xmlns:xlink="http://www.w3.org/1999/xlink" x="0px" y="0px" width="440.297px" height="438.335px" viewBox="0 0 440.297 438.335" enable-background="new 0 0 440.297 438.335" xml:space="preserve">
	<circle fill-rule="evenodd" clip-rule="evenodd" fill="#FFFFFF" cx="220.149" cy="219.168" r="219.169"/>
	<path fill-rule="evenodd" clip-rule="evenodd" fill="#67CEF6" d="M222.98,36.281c101.442,1.556,182.437,84.714,180.874,185.703
		c-1.563,100.993-85.091,181.627-186.534,180.071C115.877,400.5,34.881,317.344,36.443,216.351
		C38.006,115.361,121.537,34.726,222.98,36.281 M223.54,0.026c121.55,1.864,218.604,101.509,216.731,222.518
		c-1.872,121.009-101.963,217.631-223.513,215.767S-1.846,336.802,0.027,215.793C1.899,94.784,101.99-1.838,223.54,0.026z"/>
	<path fill-rule="evenodd" clip-rule="evenodd" fill="#F58220" d="M97.079,190.304c0.366-23.616,0.73-47.164,1.093-70.622
		c4.056,0.062,8.28,0.127,12.504,0.191c-0.363,23.458-0.729,47.1-1.094,70.716C104.017,190.217,103.867,188.897,97.079,190.304
		 M119.059,322.006c0.365-23.616,0.736-47.584,1.099-71.042c4.055,0.063,8.279,0.127,12.504,0.191
		c-0.363,23.458-0.735,47.521-1.101,71.136C125.996,321.919,125.845,320.599,119.059,322.006z M310.354,329.416
		c0.233-15.126,0.468-30.253,0.699-45.219c4.123-0.097,8.243-0.033,12.528,0.032c-0.233,15.126-0.468,30.252-0.702,45.378
		C318.594,329.542,314.474,329.479,310.354,329.416z M240.523,347.261c-0.426-2.069-0.632-3.849-0.933-5.845
		c-0.13-0.869,0.062-0.826,0.348-1.669c10.875-32.075,24.356-56.249,28.946-78.953c-2.866-0.044-6.25-0.01-9.118,0.104
		c-0.262,3.184,0.524,5.858,1.535,9.272c0.339,1.146,0.049,1.975-1.197,2.181c-6.115,1.016-11.979,0.741-18.203,0.797
		c-1.272-10.324-0.796-20.622,0.479-30.907c15.276,0.711,30.852,1.519,46.287,2.231c0.321,3.348,0.516,4.293,0.88,5.231
		c0.375,0.966,0.26,1.093-0.096,2.09c-21.698,60.866-21.702,60.868-28.625,79.027c6.367,0.098,10.101-5.938,9.735-11.259
		c5.575-0.073,11.157-0.385,16.802,0.024c1.511,9.07-0.146,19.73-0.455,29.396c-15.185,1.194-30.033,0.993-45.136-0.625
		C240.869,348.261,240.706,348.147,240.523,347.261z M298.092,133.931l0.102-6.563c0.125,0.01,0.247,0.025,0.365,0.041l0.019-1.205
		c0.021-1.336,1.135-2.412,2.477-2.391l7.073,0.108c1.342,0.021,2.422,1.129,2.401,2.465l-0.021,1.387l0.074-0.06
		c-0.03,1.902-0.006,4.379-0.199,6.47L298.092,133.931z M298.388,216.348c-19.24-3.261-19.274-34.801-19.345-52.97
		c0.247-16.008-1.156-30.483,7.185-44.623c6.238-9.643,14.95-11.624,26.208-8.517c12.952,3.906,18.43,19.658,15.315,35.667
		c-0.337,1.735-0.432,3.551-0.633,5.369c-9.394-0.145-18.989,0.787-28.336-0.524c-0.557,15.37-1.189,30.827-1.586,46.198
		c2.843,1.47,7.932,1.462,11.115,1.511c1.48-4.57,1.505-10.602,1.546-12.256c3.987-0.415,13.314-1.865,16.78,0.566
		c0.138,1.668,1.043,3.966,1.494,5.716C328.171,209.939,309.543,218.473,298.388,216.348z M189.117,196.876
		c0.366-23.616,0.731-47.231,1.096-70.848c3.821,0.059,8.307,0.127,12.284,0.347c-0.363,23.458-0.729,47.073-1.094,70.689
		C197.424,197.004,192.939,196.935,189.117,196.876z M174.558,203.47c-1.718-5.409-3.489-11.088-3.647-17.025
		c-0.396-14.946-0.087-28.309,0.616-42.579c0.313-6.37,0.995-12.978,3.218-19.031c4.585-12.489,15.179-20.23,27.636-15.899
		c5.874,2.369,12.379,7.449,16.79,13.508c1.751,2.406,1.712,4.246,1.676,7.119c-0.279,22.119-0.304,41.499-0.65,63.948
		c-0.148,11.868-15.313,21.177-23.763,21.844C186.332,215.201,180.201,213.342,174.558,203.47z M133.14,214.725
		c0.483-31.223,0.957-61.816,1.596-92.879c4.545-6.982,15.377-14.539,24.231-12.953l8.775,1.571l-0.284,16.643
		c-5.096-0.078-10.19-0.156-15.125-0.232c-0.611,29.161-1.223,58.479-1.677,87.802C145.595,214.751,137.83,216.362,133.14,214.725z
		 M242.084,192.616c0.363-23.457,0.727-46.915,1.089-70.372c3.822,0.059,8.259,0.126,12.238,0.188
		c-0.362,23.457-0.726,46.915-1.089,70.372C250.343,192.742,245.907,192.674,242.084,192.616z M224.4,234.356
		c0.518-43.748,1.192-87.333,1.866-130.92c10.352,0,18.72,0.128,29.228,0.29c15.659,0.321,18.861,14.73,18.719,25.771
		c-0.186,12.046-0.441,21.291-0.631,33.495c-0.754,16.332,1.143,47.376-18.756,50.112c-3.979-0.062-8.59-0.607-12.396-1.617
		c-1.354,7.344-0.939,15.445-1.218,23.208C236.178,235.407,229.021,235.97,224.4,234.356z M153.875,229.59l0.131-11.035
		c3.549-2.957,6.723-6.117,11.192-6.568c6.548-0.222,9.847,1.987,22.37,7.062c-0.023,3.675-0.114,7.471-0.172,11.274
		C177.152,236.938,166.132,238.323,153.875,229.59z M161.049,345.785c0.54-34.869,1.079-69.738,1.776-104.446
		c5.117,0.078,10.234,0.157,15.511,0.238c-0.537,34.71-0.917,69.581-1.297,104.453C171.603,345.947,166.326,345.865,161.049,345.785z
		 M187.561,346.449c-0.426-2.069-0.633-3.85-0.932-5.846c-0.131-0.869,0.061-0.826,0.347-1.669
		c10.875-32.075,24.357-56.249,28.946-78.953c-2.866-0.044-6.25-0.01-9.118,0.104c-0.261,3.185,0.524,5.859,1.535,9.273
		c0.339,1.145,0.049,1.974-1.197,2.181c-6.116,1.015-11.98,0.741-18.203,0.796c-1.274-10.324-0.796-20.621,0.478-30.907
		c15.276,0.711,30.851,1.519,46.287,2.231c0.321,3.348,0.517,4.294,0.88,5.231c0.374,0.967,0.261,1.093-0.095,2.09
		c-21.699,60.867-21.703,60.868-28.625,79.027c6.367,0.098,10.101-5.937,9.736-11.259c5.574-0.073,11.156-0.385,16.802,0.024
		c1.511,9.071-0.146,19.73-0.455,29.397c-15.186,1.194-30.035,0.992-45.137-0.626C187.906,347.448,187.742,347.336,187.561,346.449z
		 M222.805,47.561c53.439,0.819,100.828,25.773,131.858,64.273c-8.949-0.211-18.555,5.936-23.284,12.84l-1.434,92.705
		c5.577,1.951,11.627,0.306,17.65,0.462l1.362-88.062l15.113,0.231l0.081-5.206c18.417,27.796,28.926,61.207,28.372,97.005
		c-0.734,47.449-20.754,90.105-52.507,120.693l2.684-79.015c1.53-19.535-13.648-22.93-28.223-23.146
		c-5.895-0.087-9.443,0.333-15.033,1.591l-0.266,17.174l24.809,0.69l-1.558,10.459c-17.694-6.404-24.85,4.864-27.674,14.008
		c-2.256,6.796-2.048,25.189-2.489,39.098c-0.217,15.381,7.623,24.173,19.035,24.354l22.66,0.347
		c-31.027,27.172-71.904,43.396-116.469,42.712c-37.18-0.569-71.43-12.822-99.281-33.191c0.219-6.467,0.506-12.35,1.873-16.949
		c21.951,6.83,28.485-8.996,29.929-33.696l1.015-48.924c0.119-13.182-3.92-24.733-18.523-25.127l-28.744-0.441l-1.729,111.721
		c-34.058-31.914-55.038-77.426-54.261-127.643c0.577-37.26,13.052-71.566,33.756-99.393l-1.782,115.174
		c5.828,1.304,10.311-0.011,16.312,0.606c0.268-7.873,0.341-18.256,1.957-23.697c22.284,7.345,28.857-9.414,30.301-34.113
		l1.015-48.923c0.119-13.184-4.208-24.34-18.81-24.734l-15.575-0.239C126.986,67.52,172.55,46.79,222.805,47.561z"/>
</svg>